<svg width="13.000000" height="14.000000" viewBox="0 0 13 14" fill="none" xmlns="http://www.w3.org/2000/svg" xmlns:xlink="http://www.w3.org/1999/xlink">
	<desc>
			Created with Pixso.
	</desc>
	<defs/>
	<path id="Path" d="M6 0C3.15 0 0.85 2.3 0.85 5.14L0.85 8.21L0.25 8.82C0 9.06 -0.07 9.43 0.06 9.75C0.19 10.07 0.51 10.28 0.85 10.28L11.14 10.28C11.48 10.28 11.8 10.07 11.93 9.75C12.06 9.43 11.99 9.06 11.74 8.82L11.14 8.21L11.14 5.14C11.14 2.3 8.84 0 6 0Z" fill="#67748E" fill-opacity="1.000000" fill-rule="nonzero"/>
	<path id="Path" d="M6 13.71C4.57 13.71 3.42 12.56 3.42 11.14L8.57 11.14C8.57 12.56 7.42 13.71 6 13.71Z" fill="#67748E" fill-opacity="1.000000" fill-rule="nonzero"/>
</svg>
