<svg width="14.000000" height="14.000000" viewBox="0 0 14 14" fill="none" xmlns="http://www.w3.org/2000/svg" xmlns:xlink="http://www.w3.org/1999/xlink">
	<desc>
			Created with Pixso.
	</desc>
	<defs/>
	<path id="Shape" d="M8.30304 1.02454C7.97144 -0.341553 6.02856 -0.341553 5.6969 1.02454C5.48267 1.9071 4.47162 2.32581 3.69617 1.85327C2.49567 1.12183 1.12183 2.49561 1.85333 3.69617C2.32587 4.47168 1.90704 5.48267 1.0246 5.6969C-0.341553 6.02856 -0.341553 7.97144 1.0246 8.3031C1.90704 8.51733 2.32587 9.52844 1.85333 10.3038C1.12183 11.5043 2.49567 12.8782 3.69617 12.1466C4.47162 11.6742 5.48267 12.0929 5.6969 12.9755C6.02856 14.3416 7.97144 14.3416 8.30304 12.9755C8.51733 12.0929 9.52838 11.6742 10.3038 12.1466C11.5043 12.8782 12.8782 11.5043 12.1467 10.3038C11.6741 9.52844 12.093 8.51733 12.9755 8.3031C14.3415 7.97144 14.3415 6.02856 12.9755 5.6969C12.093 5.48267 11.6741 4.47168 12.1467 3.69617C12.8782 2.49561 11.5043 1.12183 10.3038 1.85327C9.52838 2.32581 8.51733 1.9071 8.30304 1.02454ZM9.625 7C9.625 8.44983 8.44977 9.625 7 9.625C5.55023 9.625 4.375 8.44983 4.375 7C4.375 5.55029 5.55023 4.375 7 4.375C8.44977 4.375 9.625 5.55029 9.625 7Z" clip-rule="evenodd" fill="#67748E" fill-opacity="1.000000" fill-rule="evenodd"/>
</svg>
